HIERARCHY
ROOT Hips
{
  OFFSET -4.35178 90.3298 111.633
  CHANNELS 6 Xposition Yposition Zposition Zrotation Xrotation Yrotation
  JOINT LeftUpLeg
  {
    OFFSET 0.103456 1.85784 10.5485
    CHANNELS 6 Xposition Yposition Zposition Zrotation Xrotation Yrotation
    JOINT LeftLeg
    {
      OFFSET 43.5 -4.2e-05 0
      CHANNELS 6 Xposition Yposition Zposition Zrotation Xrotation Yrotation
      JOINT LeftFoot
      {
        OFFSET 42.3722 1.9e-05 0
        CHANNELS 6 Xposition Yposition Zposition Zrotation Xrotation Yrotation
        JOINT LeftToe
        {
          OFFSET 17.3 0 0
          CHANNELS 6 Xposition Yposition Zposition Zrotation Xrotation Yrotation
          End Site
          {
            OFFSET 0 0 0
          }
        }
      }
    }
  }
  JOINT RightUpLeg
  {
    OFFSET 0.103456 1.85782 -10.5485
    CHANNELS 6 Xposition Yposition Zposition Zrotation Xrotation Yrotation
    JOINT RightLeg
    {
      OFFSET 43.5 -2.7e-05 0
      CHANNELS 6 Xposition Yposition Zposition Zrotation Xrotation Yrotation
      JOINT RightFoot
      {
        OFFSET 42.3723 0 0
        CHANNELS 6 Xposition Yposition Zposition Zrotation Xrotation Yrotation
        JOINT RightToe
        {
          OFFSET 17.3 0 1.7e-05
          CHANNELS 6 Xposition Yposition Zposition Zrotation Xrotation Yrotation
          End Site
          {
            OFFSET 0 0 0
          }
        }
      }
    }
  }
  JOINT Spine
  {
    OFFSET 6.90197 -2.60373 0
    CHANNELS 6 Xposition Yposition Zposition Zrotation Xrotation Yrotation
    JOINT Spine1
    {
      OFFSET 12.5881 0 0
      CHANNELS 6 Xposition Yposition Zposition Zrotation Xrotation Yrotation
      JOINT Spine2
      {
        OFFSET 12.3432 -1.8e-05 0
        CHANNELS 6 Xposition Yposition Zposition Zrotation Xrotation Yrotation
        JOINT Neck
        {
          OFFSET 25.8329 2.3e-05 0
          CHANNELS 6 Xposition Yposition Zposition Zrotation Xrotation Yrotation
          JOINT Head
          {
            OFFSET 11.7666 0 0
            CHANNELS 6 Xposition Yposition Zposition Zrotation Xrotation Yrotation
            End Site
            {
              OFFSET 0 0 0
            }
          }
        }
        JOINT LeftShoulder
        {
          OFFSET 19.7459 -1.48035 6.0001
          CHANNELS 6 Xposition Yposition Zposition Zrotation Xrotation Yrotation
          JOINT LeftArm
          {
            OFFSET 11.2841 1.8e-05 -2e-05
            CHANNELS 6 Xposition Yposition Zposition Zrotation Xrotation Yrotation
            JOINT LeftForeArm
            {
              OFFSET 33 -1.3e-05 1.9e-05
              CHANNELS 6 Xposition Yposition Zposition Zrotation Xrotation Yrotation
              JOINT LeftHand
              {
                OFFSET 25.2 3.2e-05 1.1e-05
                CHANNELS 6 Xposition Yposition Zposition Zrotation Xrotation Yrotation
                End Site
                {
                  OFFSET 0 0 0
                }
              }
            }
          }
        }
        JOINT RightShoulder
        {
          OFFSET 19.7461 -1.48036 -6.00008
          CHANNELS 6 Xposition Yposition Zposition Zrotation Xrotation Yrotation
          JOINT RightArm
          {
            OFFSET 11.2841 0 0
            CHANNELS 6 Xposition Yposition Zposition Zrotation Xrotation Yrotation
            JOINT RightForeArm
            {
              OFFSET 33.0001 1.6e-05 0
              CHANNELS 6 Xposition Yposition Zposition Zrotation Xrotation Yrotation
              JOINT RightHand
              {
                OFFSET 25.1998 0.000123 0.000432
                CHANNELS 6 Xposition Yposition Zposition Zrotation Xrotation Yrotation
                End Site
                {
                  OFFSET 0 0 0
                }
              }
            }
          }
        }
      }
    }
  }
}
MOTION
Frames:	4
Frame Time:	0.0333333
51.7827 80.4173 -83.974 16.9177 -78.572 -79.6277 0.103456 1.85784 10.5485 -27.5787 25.2443 178.081 43.5 -4.2e-05 1e-05 -50.3105 -1.8149 -6.47143 42.3722 1.9e-05 -1.42109e-14 70.7834 11.7831 -5.94523 17.3 -3.55271e-15 3e-06 21.4546 -1e-06 0.003093 0.103456 1.85782 -10.5485 6.42247 -17.5317 169.498 43.5 -2.7e-05 4e-06 -48.3986 13.9237 -1.79023 42.3723 1.42109e-14 1e-05 92.2125 12.9564 -4.90229 17.3 -6e-06 1.7e-05 21.4546 -1.9e-05 -0.003116 6.90197 -2.60373 -3e-06 10.5638 -0.916849 1.24193 12.5881 1e-05 8e-06 11.1423 -1.44282 2.68071 12.3432 -1.8e-05 -5e-06 10.8314 -1.10822 2.78066 25.8329 2.3e-05 7e-06 5.10271 -0.0014856 -9.67215 11.7666 -8e-06 -6e-06 -16.4791 -2.88613 7.31545 19.7459 -1.48035 6.0001 -173.376 4.76874 -83.5521 11.2841 1.8e-05 -2e-05 -14.0757 -10.6603 62.8764 33 -1.3e-05 1.9e-05 -111.063 -15.5249 -3.21447 25.2 3.2e-05 1.1e-05 -20.7935 28.3466 -2.01797 19.7461 -1.48036 -6.00008 -173.699 12.0279 73.009 11.2841 1.42109e-14 -1e-06 -19.2302 -5.27685 -42.1366 33.0001 1.6e-05 -1e-06 -92.1647 -12.1052 22.7896 25.1998 0.000123 0.000432 55.9331 -51.4639 101.457 
53.8394 79.674 -89.5297 42.1848 -76.1213 -54.9664 0.103456 1.85784 10.5485 -19.3496 30.469 173.065 43.5 -4.2e-05 1e-05 -36.5743 -8.06731 -10.1104 42.3722 1.9e-05 0 67.2206 14.1537 -8.18673 17.3 0 3e-06 21.4546 -1e-06 0.003093 0.103456 1.85782 -10.5485 11.267 -21.5574 171.443 43.5 -2.7e-05 4e-06 -50.241 14.2785 0.618236 42.3723 0 1e-05 89.7473 11.9223 -4.99525 17.3 -6e-06 1.7e-05 21.4546 -1.9e-05 -0.003116 6.90197 -2.60373 -3e-06 10.5812 -0.820696 1.47765 12.5881 1e-05 8e-06 11.1721 -1.20415 3.13064 12.3432 -1.8e-05 -5e-06 10.8542 -0.841882 3.21488 25.8329 2.3e-05 7e-06 4.42069 -0.174343 -9.2423 11.7666 -8e-06 -6e-06 -14.4164 -3.36168 7.81918 19.7459 -1.48035 6.0001 -172.946 4.14189 -83.173 11.2841 1.8e-05 -2e-05 -14.3627 -7.48991 61.542 33 -1.3e-05 1.9e-05 -109.739 -17.2543 -5.07435 25.2 3.2e-05 1.1e-05 -20.9158 29.3133 -1.79922 19.7461 -1.48036 -6.00008 -173.589 12.2968 73.6031 11.2841 2.13163e-14 -1e-06 -18.4699 -4.34138 -41.8984 33.0001 1.6e-05 -1e-06 -92.8061 -10.8612 22.8635 25.1998 0.000123 0.000432 53.3544 -50.9654 96.7101 
55.4645 78.9905 -95.2466 56.1743 -72.1842 -41.7008 0.103456 1.85784 10.5485 -10.487 36.5971 168.7 43.5 -4.2e-05 1e-05 -31.6778 -15.5739 -12.4146 42.3722 1.9e-05 0 66.0526 19.5956 -4.25655 17.3 0 3e-06 21.4546 -1e-06 0.003093 0.103456 1.85782 -10.5485 14.1809 -24.0548 171.764 43.5 -2.7e-05 4e-06 -55.292 12.9744 3.66182 42.3723 0 1e-05 81.2089 8.17414 -1.83143 17.3 -6e-06 1.7e-05 21.4546 -1.9e-05 -0.003116 6.90197 -2.60373 -3e-06 10.4822 -0.816944 1.65505 12.5881 1e-05 8e-06 10.9735 -1.16691 3.48168 12.3432 -1.8e-05 -5e-06 10.6525 -0.786141 3.56292 25.8329 2.3e-05 7e-06 3.79383 -0.0352653 -9.04017 11.7666 -8e-06 -6e-06 -12.9583 -3.13633 8.42704 19.7459 -1.48035 6.0001 -171.826 2.94794 -83.2738 11.2841 1.8e-05 -2e-05 -13.5984 -4.16543 59.8666 33 -1.3e-05 1.9e-05 -110.766 -20.705 -6.90396 25.2 3.2e-05 1.1e-05 -20.9206 28.3064 -0.56724 19.7461 -1.48036 -6.00008 -173.615 13.0588 74.5109 11.2841 7.10543e-15 -1e-06 -17.9475 -4.64214 -41.4692 33.0001 1.6e-05 -1e-06 -95.7282 -9.73311 23.322 25.1998 0.000123 0.000432 52.0853 -50.0138 93.4335 
56.5418 78.2691 -100.819 63.1129 -68.8658 -34.9735 0.103456 1.85784 10.5485 -5.79697 36.6756 166.784 43.5 -4.2e-05 1e-05 -33.1728 -18.5082 -12.7139 42.3722 1.9e-05 0 74.7502 26.8591 -3.85743 17.3 7.10543e-15 3e-06 21.4546 -1e-06 0.003093 0.103456 1.85782 -10.5485 12.0941 -23.7467 167.18 43.5 -2.7e-05 4e-06 -64.1837 9.40028 6.79654 42.3723 1.42109e-14 1e-05 69.0364 -3.80561 8.19495 17.3 -6e-06 1.7e-05 21.4546 -1.9e-05 -0.003116 6.90197 -2.60373 -3e-06 10.3561 -0.792234 1.65016 12.5881 1e-05 8e-06 10.7199 -1.12545 3.46573 12.3432 -1.8e-05 -5e-06 10.3983 -0.749591 3.54443 25.8329 2.3e-05 7e-06 3.08183 0.177367 -9.09921 11.7666 -8e-06 -6e-06 -13.1787 -2.62275 8.74747 19.7459 -1.48035 6.0001 -170.259 2.13523 -83.1973 11.2841 1.8e-05 -2e-05 -11.4413 -1.83359 58.2689 33 -1.3e-05 1.9e-05 -112.917 -23.3529 -8.5816 25.2 3.2e-05 1.1e-05 -20.3745 27.4744 0.329018 19.7461 -1.48036 -6.00008 -173.947 13.8779 75.5303 11.2841 -7.10543e-15 -1e-06 -17.818 -4.84758 -40.7731 33.0001 1.6e-05 -1e-06 -98.3867 -10.1882 23.725 25.1998 0.000123 0.000432 51.7213 -49.2552 91.3345 
